<?xml version="1.0" encoding="UTF-8" standalone="no"?>
<svg
   width="117.2136"
   height="116.6625"
   viewBox="0 0 117.2136 116.6625"
   data-svgdocument=""
   id="_3qcLrDpQ6JrxcWAie__xY"
   class="fl-svgdocument"
   x="0"
   y="0"
   version="1.1"
   sodipodi:docname="leadspod-favicon.svg"
   inkscape:version="1.1.1 (3bf5ae0d25, 2021-09-20)"
   xmlns:inkscape="http://www.inkscape.org/namespaces/inkscape"
   xmlns:sodipodi="http://sodipodi.sourceforge.net/DTD/sodipodi-0.dtd"
   xmlns="http://www.w3.org/2000/svg"
   xmlns:svg="http://www.w3.org/2000/svg">
  <sodipodi:namedview
     id="namedview7"
     pagecolor="#ffffff"
     bordercolor="#666666"
     borderopacity="1.0"
     inkscape:pageshadow="2"
     inkscape:pageopacity="0.0"
     inkscape:pagecheckerboard="0"
     showgrid="false"
     inkscape:zoom="1.6269531"
     inkscape:cx="86.357744"
     inkscape:cy="57.776712"
     inkscape:window-width="1920"
     inkscape:window-height="1011"
     inkscape:window-x="0"
     inkscape:window-y="32"
     inkscape:window-maximized="1"
     inkscape:current-layer="_3qcLrDpQ6JrxcWAie__xY" />
  <defs
     id="_Mz_1Sy8Z-r4V5NhIO4399"
     transform="matrix(0.6453708410263062, 0, 0, 0.6453708410263062, -19.261096954345703, 186.8233184814453)" />
  <path
     text="leadspod"
     text-anchor="start"
     font-size="100px"
     letter-spacing="0"
     side="left"
     offset="0"
     dx="0"
     dy="0"
     space="preserve"
     href=""
     font-family="Montserrat"
     font-scale="contain"
     x="0"
     y="0"
     fill="#2c3459"
     data-fl-textpath=""
     id="_dbHH01i2xlTP3TKjYS3EL"
     d="M 132.24578,62.493319 V 19.832141 h 4.08214 v 42.661178 z m 41.85625,-15.121146 -0.0575,1.264887 H 148.7468 q 0.34496,4.714578 3.62217,7.618068 3.27721,2.903489 8.27926,2.903489 v 0 q 2.81725,0 5.17454,-1.006159 2.35728,-1.00616 4.08213,-2.960985 v 0 l 2.29979,2.644763 q -2.01232,2.414784 -5.0308,3.67967 -3.01848,1.264887 -6.64065,1.264887 v 0 q -4.65708,0 -8.25051,-1.983572 -3.59343,-1.983573 -5.60575,-5.490758 -2.01232,-3.507186 -2.01232,-7.93429 v 0 q 0,-4.427103 1.92608,-7.934289 1.92608,-3.507186 5.28952,-5.46201 3.36345,-1.954825 7.56058,-1.954825 v 0 q 4.19712,0 7.53182,1.954825 3.3347,1.954824 5.23203,5.433263 1.89733,3.478438 1.89733,7.963036 z M 159.44085,35.528235 q -4.36961,0 -7.3306,2.7885 -2.96098,2.7885 -3.36344,7.273098 v 0 h 21.44557 q -0.40246,-4.484598 -3.36344,-7.273098 -2.96099,-2.7885 -7.38809,-2.7885 z m 32.71457,-3.507186 q 5.92197,0 9.08418,2.960984 3.16222,2.960985 3.16222,8.767965 v 0 18.743321 h -3.90965 v -4.714578 q -1.37988,2.357289 -4.05339,3.67967 -2.67351,1.322382 -6.35318,1.322382 v 0 q -5.05955,0 -8.04928,-2.414784 -2.98973,-2.414783 -2.98973,-6.381928 v 0 q 0,-3.852155 2.7885,-6.209444 2.7885,-2.357288 8.88295,-2.357288 v 0 h 9.60164 v -1.839836 q 0,-3.909649 -2.1848,-5.950716 -2.1848,-2.041068 -6.38193,-2.041068 v 0 q -2.87474,0 -5.5195,0.948665 -2.64477,0.948665 -4.5421,2.616016 v 0 l -1.83983,-3.047227 q 2.29979,-1.954825 5.5195,-3.01848 3.21972,-1.063654 6.7844,-1.063654 z m -1.43738,27.540032 q 3.4497,0 5.92197,-1.581108 2.47228,-1.581108 3.67967,-4.57084 v 0 -4.944557 h -9.48665 q -7.7618,0 -7.7618,5.404515 v 0 q 0,2.644763 2.01232,4.168377 2.01232,1.523613 5.63449,1.523613 z m 48.41067,-39.72894 h 4.08213 v 42.661178 h -3.90965 v -5.979465 q -1.83983,3.047227 -4.85831,4.657083 -3.01848,1.609856 -6.81314,1.609856 v 0 q -4.25462,0 -7.70431,-1.954825 -3.44969,-1.954825 -5.40452,-5.462011 -1.95482,-3.507185 -1.95482,-7.991784 v 0 q 0,-4.484598 1.95482,-7.991784 1.95483,-3.507185 5.40452,-5.433263 3.44969,-1.926077 7.70431,-1.926077 v 0 q 3.67967,0 6.64065,1.523613 2.96099,1.523614 4.85832,4.455851 v 0 z m -11.154,39.326476 q 3.16221,0 5.72073,-1.466118 2.55853,-1.466119 4.02464,-4.168377 1.46612,-2.702258 1.46612,-6.151949 v 0 q 0,-3.449691 -1.46612,-6.151948 -1.46611,-2.702258 -4.02464,-4.168377 -2.55852,-1.466119 -5.72073,-1.466119 v 0 q -3.21971,0 -5.77824,1.466119 -2.55852,1.466119 -4.02463,4.168377 -1.46612,2.702257 -1.46612,6.151948 v 0 q 0,3.449691 1.46612,6.151949 1.46611,2.702258 4.02463,4.168377 2.55853,1.466118 5.77824,1.466118 z m 34.72689,3.622176 q -3.67967,0 -7.04312,-1.063655 -3.36345,-1.063654 -5.26078,-2.67351 v 0 l 1.83983,-3.219712 q 1.89733,1.494866 4.77208,2.443531 2.87474,0.948665 5.97946,0.948665 v 0 q 4.13963,0 6.1232,-1.293634 1.98357,-1.293634 1.98357,-3.650923 v 0 q 0,-1.66735 -1.0924,-2.616015 -1.0924,-0.948665 -2.75975,-1.437372 -1.66735,-0.488706 -4.4271,-0.948665 v 0 q -3.67967,-0.689938 -5.92197,-1.408623 -2.2423,-0.718686 -3.82341,-2.443531 -1.58111,-1.724846 -1.58111,-4.772073 v 0 q 0,-3.79466 3.16222,-6.209444 3.16221,-2.414783 8.79671,-2.414783 v 0 q 2.93224,0 5.86447,0.77618 2.93224,0.776181 4.82957,2.041067 v 0 l -1.78234,3.277207 q -3.73716,-2.587268 -8.9117,-2.587268 v 0 q -3.90965,0 -5.89322,1.379876 -1.98358,1.379876 -1.98358,3.622175 v 0 q 0,1.724846 1.12115,2.759753 1.12115,1.034907 2.7885,1.523614 1.66735,0.488706 4.59959,1.00616 v 0 q 3.62218,0.689938 5.80698,1.379876 2.18481,0.689938 3.73717,2.357289 1.55236,1.66735 1.55236,4.599588 v 0 q 0,3.967144 -3.30596,6.295686 -3.30595,2.328541 -9.17042,2.328541 z m 35.58931,-30.759744 q 4.25462,0 7.70431,1.926077 3.44969,1.926078 5.40451,5.433263 1.95483,3.507186 1.95483,7.991784 v 0 q 0,4.542093 -1.95483,8.049279 -1.95482,3.507186 -5.37577,5.433264 -3.42094,1.926077 -7.73305,1.926077 v 0 q -3.67967,0 -6.64066,-1.523614 -2.96098,-1.523613 -4.85831,-4.45585 v 0 16.84599 H 282.7098 V 32.251028 h 3.90965 v 5.979464 q 1.83984,-2.989732 4.85832,-4.599587 3.01848,-1.609856 6.81314,-1.609856 z m -0.28748,27.137568 q 3.16222,0 5.74949,-1.466118 2.58727,-1.466119 4.05338,-4.168377 1.46612,-2.702258 1.46612,-6.151949 v 0 q 0,-3.449691 -1.46612,-6.123201 -1.46611,-2.67351 -4.05338,-4.168377 -2.58727,-1.494866 -5.74949,-1.494866 v 0 q -3.21971,0 -5.77823,1.494866 -2.55852,1.494867 -4.02464,4.168377 -1.46612,2.67351 -1.46612,6.123201 v 0 q 0,3.449691 1.46612,6.151949 1.46612,2.702258 4.02464,4.168377 2.55852,1.466118 5.77823,1.466118 z m 36.04927,3.622176 q -4.36961,0 -7.87679,-1.983572 -3.50719,-1.983573 -5.51951,-5.490758 -2.01232,-3.507186 -2.01232,-7.93429 v 0 q 0,-4.427103 2.01232,-7.934289 2.01232,-3.507186 5.51951,-5.46201 3.50718,-1.954825 7.87679,-1.954825 v 0 q 4.36961,0 7.8768,1.954825 3.50718,1.954824 5.49076,5.46201 1.98357,3.507186 1.98357,7.934289 v 0 q 0,4.427104 -1.98357,7.93429 -1.98358,3.507185 -5.49076,5.490758 -3.50719,1.983572 -7.8768,1.983572 z m 0,-3.622176 q 3.21971,0 5.77824,-1.466118 2.55852,-1.466119 3.99589,-4.168377 1.43737,-2.702258 1.43737,-6.151949 v 0 q 0,-3.449691 -1.43737,-6.151948 -1.43737,-2.702258 -3.99589,-4.168377 -2.55853,-1.466119 -5.77824,-1.466119 v 0 q -3.21971,0 -5.77823,1.466119 -2.55852,1.466119 -4.02464,4.168377 -1.46612,2.702257 -1.46612,6.151948 v 0 q 0,3.449691 1.46612,6.151949 1.46612,2.702258 4.02464,4.168377 2.55852,1.466118 5.77823,1.466118 z m 47.20327,-39.326476 h 4.08214 v 42.661178 h -3.90965 v -5.979465 q -1.83984,3.047227 -4.85832,4.657083 -3.01848,1.609856 -6.81314,1.609856 v 0 q -4.25461,0 -7.70431,-1.954825 -3.44969,-1.954825 -5.40451,-5.462011 -1.95483,-3.507185 -1.95483,-7.991784 v 0 q 0,-4.484598 1.95483,-7.991784 1.95482,-3.507185 5.40451,-5.433263 3.4497,-1.926077 7.70431,-1.926077 v 0 q 3.67967,0 6.64066,1.523613 2.96098,1.523614 4.85831,4.455851 v 0 z m -11.154,39.326476 q 3.16222,0 5.72074,-1.466118 2.55852,-1.466119 4.02464,-4.168377 1.46612,-2.702258 1.46612,-6.151949 v 0 q 0,-3.449691 -1.46612,-6.151948 -1.46612,-2.702258 -4.02464,-4.168377 -2.55852,-1.466119 -5.72074,-1.466119 v 0 q -3.21971,0 -5.77823,1.466119 -2.55852,1.466119 -4.02464,4.168377 -1.46612,2.702257 -1.46612,6.151948 v 0 q 0,3.449691 1.46612,6.151949 1.46612,2.702258 4.02464,4.168377 2.55852,1.466118 5.77823,1.466118 z"
     font-weight="400"
     font-style="normal"
     style="stroke-width:0.574948" />
  <path
     id="_k08helhpR_Dlyy1GW_-pD"
     d="M 103.70442,0 H 49.478366 A 13.520995,13.520995 0 0 0 35.969211,13.497315 V 36.845302 H 12.502827 A 12.514616,12.514616 0 0 0 5.0418062e-5,49.348078 V 87.921984 A 12.514616,12.514616 0 0 0 12.502827,100.47212 h 5.517323 v 13.21316 a 2.9599375,2.9599375 0 0 0 5.067413,2.09564 l 15.391675,-15.3088 H 60.489334 A 12.514616,12.514616 0 0 0 72.99211,87.921984 V 69.676929 h 2.190353 l 17.07292,17.001881 a 2.9599375,2.9599375 0 0 0 5.055573,-2.095636 V 69.676929 h 6.405304 a 13.520995,13.520995 0 0 0 13.49732,-13.509155 v -42.6231 A 13.520995,13.520995 0 0 0 103.70442,0 Z M 67.072235,87.921984 a 6.5947408,6.5947408 0 0 1 -6.582901,6.582901 H 37.188706 A 2.9599375,2.9599375 0 0 0 35.09307,95.369186 L 23.940025,106.49855 V 97.512181 A 2.9599375,2.9599375 0 0 0 20.980088,94.552244 H 12.502827 A 6.5947408,6.5947408 0 0 1 5.9199254,87.921984 V 49.348078 A 6.5947408,6.5947408 0 0 1 12.502827,42.765177 H 35.981051 V 56.167774 A 13.520995,13.520995 0 0 0 49.478366,69.676929 H 67.072235 Z M 111.2937,56.167774 a 7.5892797,7.5892797 0 0 1 -7.58928,7.58928 h -9.365241 a 2.9599375,2.9599375 0 0 0 -2.959938,2.959937 V 77.443805 L 78.533113,64.621356 A 2.9599375,2.9599375 0 0 0 76.437477,63.757054 H 49.478366 a 7.5892797,7.5892797 0 0 1 -7.58928,-7.58928 v -42.6231 a 7.5892797,7.5892797 0 0 1 7.58928,-7.57744 h 54.226054 a 7.5892797,7.5892797 0 0 1 7.58928,7.57744 z"
     stroke="none"
     fill="#2c3459"
     stroke-width="1.18397" />
  <path
     id="_SzOGutgdP9UB7Bpik8ioX"
     d="m 76.908726,26.516877 c -4.652927,-10.052395 -20.864095,-4.702438 -16.742645,8.351594 2.211775,6.49143 6.70727,9.36929 16.741871,16.607262 C 86.943714,44.237761 91.437661,41.359128 93.650209,34.868471 97.769726,21.814439 81.560492,16.464482 76.908726,26.516877 Z"
     stroke="none"
     fill="#99d747"
     stroke-width="0.386809" />
</svg>
